<svg width="23" height="24" viewBox="0 0 23 24" fill="none" xmlns="http://www.w3.org/2000/svg">
<path d="M11.5614 13C12.0878 13 12.5146 12.5523 12.5146 12C12.5146 11.4477 12.0878 11 11.5614 11C11.0349 11 10.6082 11.4477 10.6082 12C10.6082 12.5523 11.0349 13 11.5614 13Z" stroke="#240F4F" stroke-width="2" stroke-linecap="round" stroke-linejoin="round"/>
<path d="M11.5614 6C12.0878 6 12.5146 5.55228 12.5146 5C12.5146 4.44772 12.0878 4 11.5614 4C11.0349 4 10.6082 4.44772 10.6082 5C10.6082 5.55228 11.0349 6 11.5614 6Z" stroke="#240F4F" stroke-width="2" stroke-linecap="round" stroke-linejoin="round"/>
<path d="M11.5614 20C12.0878 20 12.5146 19.5523 12.5146 19C12.5146 18.4477 12.0878 18 11.5614 18C11.0349 18 10.6082 18.4477 10.6082 19C10.6082 19.5523 11.0349 20 11.5614 20Z" stroke="#240F4F" stroke-width="2" stroke-linecap="round" stroke-linejoin="round"/>
</svg>
