<svg width="24" height="24" viewBox="0 0 24 24" fill="none" xmlns="http://www.w3.org/2000/svg">
<g clip-path="url(#clip0_2110_17)">
<path fill-rule="evenodd" clip-rule="evenodd" d="M18.7146 12.513L6.94465 19.9054C6.85175 19.9636 6.74474 19.9962 6.63476 19.9997C6.52478 20.0032 6.41586 19.9775 6.31938 19.9253C6.22289 19.873 6.14235 19.7962 6.08618 19.7028C6.03 19.6094 6.00024 19.5028 6 19.3942V4.607C6.00002 4.49827 6.02963 4.39154 6.08571 4.29796C6.1418 4.20439 6.22231 4.1274 6.31884 4.07504C6.41536 4.02268 6.52436 3.99687 6.63445 4.0003C6.74453 4.00374 6.85166 4.0363 6.94465 4.09458L18.7158 11.4894C18.8029 11.5443 18.8746 11.6199 18.9243 11.7094C18.974 11.7988 19 11.8992 19 12.0012C19 12.1032 18.974 12.2036 18.9243 12.293C18.8746 12.3825 18.8029 12.4582 18.7158 12.513H18.7146Z" stroke="#863ED5" stroke-width="2" stroke-linecap="round"/>
</g>
<defs>
<clipPath id="clip0_2110_17">
<rect width="24" height="24" fill="white"/>
</clipPath>
</defs>
</svg>
