<svg width="24" height="24" viewBox="0 0 24 24" fill="none" xmlns="http://www.w3.org/2000/svg">
<g clip-path="url(#clip0_2110_7)">
<path d="M7 15C8.65685 15 10 13.6569 10 12C10 10.3431 8.65685 9 7 9C5.34315 9 4 10.3431 4 12C4 13.6569 5.34315 15 7 15Z" stroke="#863ED5" stroke-width="2" stroke-linecap="round"/>
<path d="M17 9C18.6569 9 20 7.65685 20 6C20 4.34315 18.6569 3 17 3C15.3431 3 14 4.34315 14 6C14 7.65685 15.3431 9 17 9Z" stroke="#863ED5" stroke-width="2" stroke-linecap="round"/>
<path d="M17 21C18.6569 21 20 19.6569 20 18C20 16.3431 18.6569 15 17 15C15.3431 15 14 16.3431 14 18C14 19.6569 15.3431 21 17 21Z" stroke="#863ED5" stroke-width="2" stroke-linecap="round"/>
<path d="M9.5 10.5L14.5 7.5" stroke="#863ED5" stroke-width="2"/>
<path d="M14.5 16.5L9.5 13.5" stroke="#863ED5" stroke-width="2"/>
</g>
<defs>
<clipPath id="clip0_2110_7">
<rect width="24" height="24" fill="white"/>
</clipPath>
</defs>
</svg>
