<svg width="23" height="24" viewBox="0 0 23 24" fill="none" xmlns="http://www.w3.org/2000/svg">
<path d="M20.1488 8H3.04089C2.78882 8 2.54707 7.89464 2.36883 7.70711C2.19059 7.51957 2.09045 7.26522 2.09045 7C2.09045 6.73478 2.19059 6.48043 2.36883 6.29289C2.54707 6.10536 2.78882 6 3.04089 6H20.1488C20.4008 6 20.6426 6.10536 20.8208 6.29289C20.9991 6.48043 21.0992 6.73478 21.0992 7C21.0992 7.26522 20.9991 7.51957 20.8208 7.70711C20.6426 7.89464 20.4008 8 20.1488 8ZM16.347 13H3.04089C2.78882 13 2.54707 12.8946 2.36883 12.7071C2.19059 12.5196 2.09045 12.2652 2.09045 12C2.09045 11.7348 2.19059 11.4804 2.36883 11.2929C2.54707 11.1054 2.78882 11 3.04089 11H16.347C16.5991 11 16.8408 11.1054 17.0191 11.2929C17.1973 11.4804 17.2975 11.7348 17.2975 12C17.2975 12.2652 17.1973 12.5196 17.0191 12.7071C16.8408 12.8946 16.5991 13 16.347 13ZM12.5453 18H3.04089C2.78882 18 2.54707 17.8946 2.36883 17.7071C2.19059 17.5196 2.09045 17.2652 2.09045 17C2.09045 16.7348 2.19059 16.4804 2.36883 16.2929C2.54707 16.1054 2.78882 16 3.04089 16H12.5453C12.7973 16 13.0391 16.1054 13.2173 16.2929C13.3956 16.4804 13.4957 16.7348 13.4957 17C13.4957 17.2652 13.3956 17.5196 13.2173 17.7071C13.0391 17.8946 12.7973 18 12.5453 18Z" fill="#240F4F"/>
</svg>
